<svg height='300px' width='300px'  fill="#000000" xmlns="http://www.w3.org/2000/svg" xmlns:xlink="http://www.w3.org/1999/xlink" version="1.1" x="0px" y="0px" viewBox="0 0 50 50" enable-background="new 0 0 50 50" xml:space="preserve"><g><path d="M25,7c-7.6,0-13.7,6.2-13.7,13.7v13.7h27.5V20.7C38.7,13.2,32.6,7,25,7z M22,11c-4.2,1.3-7.2,5.1-7.2,9.7v11.4H13V20.7   c0-5.6,3.8-10.2,9-11.6V11z"></path><path d="M40.5,36.2c-0.1,0-0.1,0-0.2,0H9.6c-0.1,0-0.1,0-0.2,0c-1.8,0.1-3.3,1.6-3.3,3.4c0,1.9,1.5,3.4,3.4,3.4h30.8   c1.9,0,3.4-1.5,3.4-3.4C43.8,37.8,42.3,36.3,40.5,36.2z"></path><path d="M42.4,12.6l3-2.5c0.4-0.3,0.5-0.9,0.1-1.4c-0.3-0.4-0.9-0.5-1.4-0.1l-3,2.5c-0.4,0.3-0.5,0.9-0.1,1.4   C41.4,12.9,42,13,42.4,12.6z"></path><path d="M48,17.4h-3.9c-0.5,0-1,0.4-1,1s0.4,1,1,1H48c0.5,0,1-0.4,1-1S48.6,17.4,48,17.4z"></path><path d="M42.4,24.2c-0.4-0.3-1-0.3-1.4,0.1c-0.3,0.4-0.3,1,0.1,1.4l3,2.5c0.4,0.3,1,0.3,1.4-0.1c0.3-0.4,0.3-1-0.1-1.4L42.4,24.2z"></path><path d="M7.6,12.6C8,13,8.6,12.9,9,12.5c0.3-0.4,0.3-1-0.1-1.4l-3-2.5c-0.4-0.3-1-0.3-1.4,0.1c-0.3,0.4-0.3,1,0.1,1.4L7.6,12.6z"></path><path d="M6.8,18.4c0-0.5-0.4-1-1-1H2c-0.5,0-1,0.4-1,1s0.4,1,1,1h3.9C6.4,19.4,6.8,18.9,6.8,18.4z"></path><path d="M9,24.3c-0.3-0.4-0.9-0.5-1.4-0.1l-3,2.5C4.2,27,4.1,27.6,4.5,28c0.3,0.4,0.9,0.5,1.4,0.1l3-2.5C9.2,25.3,9.3,24.7,9,24.3z   "></path></g></svg>