<?xml version="1.0" encoding="utf-8"?>
<!-- Svg Vector Icons : http://www.onlinewebfonts.com/icon -->
<!DOCTYPE svg PUBLIC "-//W3C//DTD SVG 1.1//EN" "http://www.w3.org/Graphics/SVG/1.1/DTD/svg11.dtd">
<svg version="1.1" xmlns="http://www.w3.org/2000/svg" xmlns:xlink="http://www.w3.org/1999/xlink" x="0px" y="0px" viewBox="0 0 1000 1000" enable-background="new 0 0 1000 1000" xml:space="preserve">
<metadata> Svg Vector Icons : http://www.onlinewebfonts.com/icon </metadata>
<g><path d="M811,645.6c0.1-0.1,0.3-0.3,0.3-0.3c-0.4-4.5-1.1-9.2-2.1-14c-0.5-3.1-0.9-6.3-1.5-9.3c-0.2,0.2-0.4,0.5-0.5,0.7c-6.4-25-17.8-49.4-17.8-49.4L530.5,39.9c-38.8-67.3-73,0-73,0L203.4,583c-10.6,28.9-13.1,51.7-13.1,51.7c-1.9,14-3,28.2-3,42.7C187.3,850,327.3,990,500,990c172.7,0,312.7-140,312.7-312.7C812.7,666.6,812,656,811,645.6L811,645.6z M500,652.7c-93.6-84.5-182.9-78-245.4-53.7l244-509.8l235.6,499.3c19.4,45.8,22,75.3,22,87.9C696,722.5,602.9,745.6,500,652.7L500,652.7z"/></g>
</svg>