<svg height='300px' width='300px'  fill="#000000" xmlns="http://www.w3.org/2000/svg" xmlns:xlink="http://www.w3.org/1999/xlink" version="1.1" x="0px" y="0px" viewBox="0 0 100 100" enable-background="new 0 0 100 100" xml:space="preserve"><g><path fill-rule="evenodd" clip-rule="evenodd" d="M54.517,57.968l-5.024-2.267c-0.265-0.119-0.542-0.173-0.815-0.173   c-0.811-0.08-1.62,0.339-1.992,1.115l-9.677,20.224L27.31,56.502c-0.125-0.264-0.303-0.483-0.512-0.66   c-0.531-0.603-1.395-0.853-2.192-0.557l-6.496,2.409c-2.388,0.885-4.351,2.424-5.722,4.388c-1.37,1.964-2.138,4.33-2.138,6.874   v10.519c0,1.104,0.896,2,2,2s2-0.896,2-2V68.956c0-1.724,0.504-3.304,1.403-4.592c0.903-1.295,2.222-2.317,3.847-2.92l4.874-1.808   l10.572,22.197c0.4,0.844,1.317,1.27,2.194,1.095c0.786,0.049,1.561-0.371,1.922-1.126l10.399-21.734l3.414,1.54   c1.683,0.759,3.077,1.854,4.021,3.204c0.859,1.23,1.354,2.705,1.354,4.363v10.518c0,1.104,0.896,2,2,2s2-0.896,2-2V69.176   c0-2.498-0.763-4.745-2.089-6.645C58.794,60.572,56.837,59.015,54.517,57.968z"></path><path fill-rule="evenodd" clip-rule="evenodd" d="M43.799,55.625c-0.553-0.614-1.5-0.664-2.114-0.111l-2.937,2.64   c-0.564,0.509-0.652,1.349-0.234,1.959l1.046,1.742l-2.742,5.91l-2.877-6.202l1.046-1.742c0.419-0.609,0.33-1.45-0.234-1.959   l-2.936-2.639c-0.615-0.554-1.563-0.504-2.115,0.111c-0.554,0.614-0.504,1.562,0.11,2.114l2.021,1.816l-0.865,1.442   c-0.263,0.44-0.273,0.961-0.074,1.395h-0.002l4.346,9.366c0.119,0.259,0.307,0.464,0.528,0.611c0.138,0.166,0.31,0.308,0.519,0.403   c0.75,0.347,1.64,0.019,1.986-0.732l4.34-9.356l-0.002-0.001c0.2-0.433,0.188-0.954-0.074-1.394l-0.865-1.442l2.021-1.816   C44.303,57.188,44.353,56.24,43.799,55.625z"></path><path fill-rule="evenodd" clip-rule="evenodd" d="M83.013,24.712c-4.162-4.162-9.912-6.737-16.263-6.737   c-2.281,0-4.549,0.345-6.729,1.013c-2.183,0.668-4.256,1.653-6.148,2.932c-0.686,0.462-0.866,1.394-0.403,2.08   c0.462,0.686,1.394,0.867,2.079,0.404c1.663-1.123,3.464-1.983,5.34-2.557c1.407-0.431,2.87-0.706,4.361-0.816v5.61   c0,0.828,0.673,1.5,1.5,1.5c0.829,0,1.501-0.672,1.501-1.5v-5.59c4.505,0.335,8.586,2.159,11.767,4.986l-1.21,1.21   c-0.586,0.585-0.586,1.535,0,2.121s1.535,0.585,2.121,0l1.188-1.188c2.59,3.107,4.239,7.015,4.558,11.295h-5.115   c-0.828,0-1.5,0.672-1.5,1.5s0.672,1.5,1.5,1.5h5.116c-0.319,4.281-1.969,8.19-4.56,11.298l-1.188-1.188   c-0.586-0.586-1.535-0.586-2.121,0c-0.585,0.586-0.585,1.535,0,2.121l1.209,1.209c-3.18,2.826-7.26,4.649-11.764,4.985v-5.563   c0-0.828-0.672-1.5-1.5-1.5s-1.5,0.672-1.5,1.5v5.583c-0.098-0.007-0.202-0.011-0.297-0.02V60.9l-0.006-0.001   c-0.591-0.053-1.186-0.134-1.78-0.242c-0.813-0.146-1.589,0.395-1.734,1.207s0.395,1.589,1.207,1.734   c0.673,0.122,1.354,0.215,2.045,0.276v0.001c0.729,0.066,1.418,0.099,2.064,0.099c6.351,0,12.101-2.574,16.263-6.736   s6.737-9.913,6.737-16.263C89.75,34.624,87.175,28.874,83.013,24.712z"></path><path fill-rule="evenodd" clip-rule="evenodd" d="M21.944,43.127c1.104,3.446,3.022,6.421,5.475,8.588   c2.716,2.4,6.073,3.817,9.715,3.817c3.644,0,7.002-1.419,9.718-3.821c2.472-2.186,4.4-5.192,5.499-8.673   c0.766-0.423,1.416-1.103,1.903-1.966l-0.004-0.002l0.004-0.006c0.618-1.094,0.996-2.514,0.996-4.032   c0-1.383-0.31-2.68-0.825-3.719c-0.404-0.813-0.943-1.488-1.583-1.97c-0.883-3.949-2.798-7.407-5.382-9.928   c-2.809-2.742-6.4-4.384-10.326-4.384c-3.919,0-7.506,1.637-10.314,4.371c-2.561,2.493-4.467,5.912-5.362,9.823   c-0.675,0.462-1.247,1.135-1.679,1.958c-0.558,1.066-0.895,2.413-0.895,3.848c0,1.582,0.403,3.048,1.059,4.152   C20.461,42.058,21.145,42.731,21.944,43.127z M29.601,24.263c2.076-2.02,4.696-3.229,7.533-3.229c2.841,0,5.467,1.214,7.545,3.243   c1.291,1.26,2.366,2.838,3.166,4.632c-0.644,0.469-1.372,0.852-2.034,1.079c0.422-0.865,0.155-1.525-0.659-2.035   c-0.651-0.407-1.632-0.314-2.774-0.207c-0.494,0.046-1.038,0.097-1.478,0.125c0.5-0.928,0.337-1.628-0.417-2.164   c-0.956-0.683-2.213,0.063-4.044,1.151c-2.905,1.727-7.919,4.7-10.82,4.237C26.41,28.38,27.799,26.018,29.601,24.263z    M23.31,35.028c0.155-0.295,0.294-0.482,0.387-0.505c0.385-0.096,0.707-0.306,0.96-0.575c3.937,0.944,9.58-2.303,12.988-4.326   c0.162,0.246,0.386,0.465,0.662,0.662c0.973,0.695,2.599,0.598,4.025,0.467c-0.025,0.333,0.011,0.637,0.1,0.912   c0.265,0.816,0.865,1.288,1.693,1.467h0.006c0.51,0.11,1.108,0.084,1.741-0.053c0.891-0.193,1.959-0.65,2.97-1.271   c0.094,0.382,0.181,0.769,0.251,1.164c0.132,0.754,0.671,1.335,1.352,1.557c0.113,0.057,0.255,0.256,0.402,0.551   c0.252,0.508,0.403,1.186,0.403,1.954c0,0.837-0.175,1.563-0.461,2.073l-0.004-0.002c-0.151,0.269-0.268,0.434-0.313,0.439   c-0.833,0.102-1.482,0.705-1.685,1.47l-0.003-0.001c-0.826,3.146-2.45,5.838-4.573,7.716c-1.993,1.764-4.441,2.805-7.077,2.805   c-2.635,0-5.081-1.04-7.074-2.801c-2.123-1.876-3.746-4.566-4.574-7.708c-0.229-0.868-0.996-1.451-1.849-1.486   c-0.028-0.016-0.124-0.159-0.257-0.383c-0.307-0.517-0.496-1.263-0.496-2.121C22.884,36.234,23.044,35.536,23.31,35.028z"></path><path fill-rule="evenodd" clip-rule="evenodd" d="M76.251,35.746c-0.414-0.715-1.33-0.959-2.045-0.545l-4.702,2.715   c-0.634-0.45-1.403-0.723-2.239-0.723c-0.169,0-0.331,0.028-0.494,0.049l-4.996-8.653c-0.414-0.715-1.33-0.959-2.045-0.545   s-0.959,1.33-0.545,2.045l4.994,8.65c-0.475,0.628-0.764,1.398-0.764,2.237c0,1.049,0.438,1.999,1.146,2.687   c0.697,0.677,1.654,1.096,2.704,1.096c1.051,0,2.008-0.419,2.704-1.096c0.708-0.688,1.146-1.638,1.146-2.687   c0-0.172-0.029-0.337-0.053-0.503l4.645-2.681C76.421,37.376,76.665,36.46,76.251,35.746z M67.883,41.517   c-0.152,0.148-0.371,0.241-0.618,0.241s-0.465-0.092-0.618-0.241c-0.143-0.139-0.231-0.33-0.231-0.542s0.089-0.403,0.231-0.542   c0.153-0.148,0.372-0.241,0.618-0.241c0.247,0,0.466,0.093,0.618,0.241c0.143,0.138,0.231,0.33,0.231,0.542   S68.025,41.378,67.883,41.517z"></path></g></svg>