<svg height='300px' width='300px'  fill="#000000" xmlns="http://www.w3.org/2000/svg" xmlns:xlink="http://www.w3.org/1999/xlink" viewBox="0 0 71 55" version="1.1" x="0px" y="0px"><title>alarm-1</title><desc>Created with Sketch.</desc><g stroke="none" stroke-width="1" fill="none" fill-rule="evenodd"><g transform="translate(35.500000, 27.500000) scale(-1, 1) translate(-35.500000, -27.500000) " fill-rule="nonzero" fill="#000000"><g><g><path d="M9.802,20.793 C9.411,20.402 8.779,20.402 8.388,20.793 C6.203,22.978 5,25.886 5,28.983 C5,32.08 6.203,34.989 8.388,37.173 C8.583,37.368 8.839,37.466 9.095,37.466 C9.351,37.466 9.607,37.368 9.802,37.173 C10.193,36.782 10.193,36.15 9.802,35.759 C7.995,33.952 7,31.546 7,28.983 C7,26.42 7.995,24.013 9.802,22.207 C10.192,21.816 10.192,21.184 9.802,20.793 Z"></path><path d="M13.305,35.19 C13.561,35.19 13.817,35.092 14.012,34.897 C14.403,34.506 14.403,33.874 14.012,33.483 C11.454,30.925 11.454,26.764 14.012,24.207 C14.403,23.816 14.403,23.184 14.012,22.793 C13.621,22.402 12.989,22.402 12.598,22.793 C9.261,26.13 9.261,31.561 12.598,34.897 C12.793,35.093 13.049,35.19 13.305,35.19 Z"></path><path d="M4.802,18.3710251 C4.411,17.876325 3.779,17.876325 3.388,18.3710251 C1.203,21.1355258 0,24.8147789 0,28.7331582 C0,32.6515374 1.203,36.3320557 3.388,39.0952912 C3.583,39.3420087 3.839,39.466 4.095,39.466 C4.351,39.466 4.607,39.3420087 4.802,39.0952912 C5.193,38.6005911 5.193,37.8009735 4.802,37.3062734 C2.995,35.020025 2,31.9759111 2,28.7331582 C2,25.4904052 2.995,22.4450261 4.802,20.1600429 C5.192,19.6653428 5.192,18.8657252 4.802,18.3710251 Z"></path><path d="M69.802,18.3710251 C69.411,17.876325 68.779,17.876325 68.388,18.3710251 C66.203,21.1355258 65,24.8147789 65,28.7331582 C65,32.6515374 66.203,36.3320557 68.388,39.0952912 C68.583,39.3420087 68.839,39.466 69.095,39.466 C69.351,39.466 69.607,39.3420087 69.802,39.0952912 C70.193,38.6005911 70.193,37.8009735 69.802,37.3062734 C67.995,35.020025 67,31.9759111 67,28.7331582 C67,25.4904052 67.995,22.4450261 69.802,20.1600429 C70.192,19.6653428 70.192,18.8657252 69.802,18.3710251 Z" transform="translate(67.547625, 28.733000) scale(-1, 1) translate(-67.547625, -28.733000) "></path><path d="M61.612,20.793 C61.221,20.402 60.589,20.402 60.198,20.793 C59.807,21.184 59.807,21.816 60.198,22.207 C62.005,24.014 63,26.42 63,28.983 C63,31.546 62.005,33.952 60.198,35.759 C59.807,36.15 59.807,36.782 60.198,37.173 C60.393,37.368 60.649,37.466 60.905,37.466 C61.161,37.466 61.417,37.368 61.612,37.173 C63.797,34.989 65,32.08 65,28.983 C65,25.886 63.797,22.978 61.612,20.793 Z"></path><path d="M55.988,22.793 C55.597,23.184 55.597,23.816 55.988,24.207 C58.546,26.765 58.546,30.926 55.988,33.483 C55.597,33.874 55.597,34.506 55.988,34.897 C56.183,35.092 56.439,35.19 56.695,35.19 C56.951,35.19 57.207,35.092 57.402,34.897 C60.739,31.56 60.739,26.129 57.402,22.793 C57.011,22.402 56.378,22.402 55.988,22.793 Z"></path><path d="M52.025,29.5 L52.025,20.506 C52.068,13.649 47.457,9.101 43.495,7.29 C42.377,6.78 41.2,6.401 40,6.112 L40,5.5 C40,2.743 37.757,0.5 35,0.5 C32.243,0.5 30,2.743 30,5.5 L30,6.206 C28.921,6.489 27.861,6.835 26.854,7.299 C22.476,9.317 18.04,14.181 18,20.5 L18,29.5 C18,35.888 15.744,41.369 11.295,45.791 C11.03,46.055 10.934,46.444 11.046,46.801 C11.158,47.157 11.461,47.422 11.83,47.486 L21.321,49.125 C23.111,49.434 26.736,49.681 28.265,49.883 C30.01,53.305 31.437,54.501 35.183,54.501 C38.93,54.501 40.358,53.303 42.102,49.88 C43.624,49.679 47.241,49.433 49.022,49.125 L58.512,47.486 C58.881,47.423 59.183,47.158 59.296,46.801 C59.409,46.445 59.313,46.055 59.047,45.791 C54.387,41.16 52.025,35.679 52.025,29.5 Z M32,5.5 C32,3.846 33.346,2.5 35,2.5 C36.654,2.5 38,3.846 38,5.5 L38,5.693 C36.007,5.411 33.976,5.427 32,5.743 L32,5.5 Z"></path></g></g></g></g></svg>