<svg height='300px' width='300px'  fill="#000000" xmlns="http://www.w3.org/2000/svg" xmlns:xlink="http://www.w3.org/1999/xlink" version="1.1" x="0px" y="0px" viewBox="0 0 100 100" enable-background="new 0 0 100 100" xml:space="preserve"><g><path d="M76,67.4V36c0-11.4-7.4-21.4-18.2-24.8C57,7.6,53.8,5,50,5s-7,2.6-7.8,6.2C31.4,14.6,24,24.6,24,36v31.4l-9.7,15.5   c-0.4,0.6-0.4,1.4-0.1,2s1,1,1.7,1h22.4c1.3,5.2,6,9,11.6,9c5.6,0,10.3-3.8,11.6-9H84c0.7,0,1.4-0.4,1.7-1s0.3-1.4-0.1-2L76,67.4z    M44.5,14.7c0.9-0.2,1.5-1,1.5-1.9c0.1-2.1,1.8-3.8,4-3.8s3.9,1.7,4,3.8c0,0.9,0.6,1.6,1.5,1.9C65.2,17.2,72,25.9,72,36v30H28V36   C28,25.9,34.8,17.2,44.5,14.7z M50,91c-3.4,0-6.2-2-7.4-5h14.8C56.2,89,53.4,91,50,91z M19.6,82l7.5-12h45.8l7.5,12H19.6z M32,36   c0-8.1,5.5-15.3,13.3-17.4c1.1-0.3,2.2,0.3,2.4,1.4c0.3,1.1-0.3,2.2-1.4,2.4C40.3,24.1,36,29.7,36,36c0,1.1-0.9,2-2,2   S32,37.1,32,36z M12.1,65.7c0.4,1-0.1,2.2-1.1,2.6c-0.2,0.1-0.5,0.2-0.8,0.2c-0.8,0-1.5-0.5-1.8-1.2c-4.5-10.9-4.5-23.5,0-34.5   c0.4-1,1.6-1.5,2.6-1.1c1,0.4,1.5,1.6,1.1,2.6C8,44.3,8,55.7,12.1,65.7z M91.6,67.2c-0.3,0.8-1.1,1.2-1.8,1.2c-0.3,0-0.5,0-0.8-0.2   c-1-0.4-1.5-1.6-1.1-2.6c4.1-10,4.1-21.4,0-31.4c-0.4-1,0.1-2.2,1.1-2.6c1-0.4,2.2,0.1,2.6,1.1C96.1,43.7,96.1,56.3,91.6,67.2z    M15.8,64.2c-3.7-8.9-3.7-19.2-0.1-28.1c0.4-1,1.6-1.5,2.6-1.1c1,0.4,1.5,1.6,1.1,2.6c-3.2,8-3.2,17.1,0.1,25.1   c0.4,1-0.1,2.2-1.1,2.6c-0.2,0.1-0.5,0.2-0.8,0.2C16.9,65.4,16.1,64.9,15.8,64.2z M84.2,35.8c3.7,8.9,3.7,19.1,0.1,28.1   c-0.3,0.8-1.1,1.2-1.9,1.2c-0.2,0-0.5,0-0.8-0.1c-1-0.4-1.5-1.6-1.1-2.6c3.2-8,3.2-17.1-0.1-25.1c-0.4-1,0.1-2.2,1.1-2.6   C82.6,34.3,83.8,34.8,84.2,35.8z"></path></g></svg>