<svg height='300px' width='300px'  fill="#000000" xmlns="http://www.w3.org/2000/svg" xmlns:xlink="http://www.w3.org/1999/xlink" version="1.1" x="0px" y="0px" viewBox="0 0 100 100" style="enable-background:new 0 0 100 100;" xml:space="preserve"><path d="M76.995,29.936H60.068c-0.229,0-0.758-0.674-0.758-0.9V12.107c0-0.229,0.156-0.172-0.072-0.172H43.263  c-0.229,0,0.048-0.057,0.048,0.172v16.928c0,0.227-0.649,0.9-0.879,0.9H25.506c-0.228,0-0.195-0.301-0.195-0.072v15.979  c0,0.228-0.032,0.094,0.195,0.094h16.926c0.229,0,0.879,0.507,0.879,0.734v7.773l16,4.134V46.67c0-0.228,0.529-0.734,0.758-0.734  h16.928c0.229,0,0.314,0.134,0.314-0.094V29.863C77.311,29.635,77.223,29.936,76.995,29.936z"></path><path d="M73.619,71.63c-1.195-1.005-2.708-1.56-4.262-1.56c-0.357,0-0.721,0.029-1.078,0.088l-15.486,2.531l-14.997,2.453  c-1.747,0.285-3.278,1.232-4.312,2.67c-1.032,1.438-1.444,3.189-1.159,4.938c0.255,1.561,1.061,2.979,2.269,3.996  c1.195,1.007,2.709,1.561,4.263,1.561c0.358,0,0.72-0.029,1.077-0.089l14.996-2.45l15.489-2.533  c1.747-0.285,3.276-1.233,4.312-2.672c1.031-1.437,1.442-3.188,1.158-4.936C75.633,74.066,74.827,72.646,73.619,71.63z   M39.695,86.77c-0.279,0.045-0.562,0.066-0.841,0.066c-1.079,0-2.116-0.335-3-0.971c-1.117-0.803-1.856-1.994-2.079-3.354  c-0.222-1.359,0.099-2.725,0.902-3.841c0.803-1.119,1.994-1.854,3.354-2.079l14.332-2.343l1.664,10.175L39.695,86.77z"></path><path d="M47.12,71.604l2.251-0.367l0.022-0.588l-5.513-1.355l2.463-10.012l14.103,3.468c1.338,0.328,2.467,1.158,3.181,2.337  c0.608,1.007,0.853,2.152,0.705,3.313l-0.052,0.399l1.519-0.249l0.021-0.232c0.135-1.557-0.293-3.119-1.202-4.399  c-0.918-1.294-2.274-2.216-3.817-2.597l-14.757-3.627L30.8,53.945c-0.521-0.129-1.055-0.192-1.587-0.192  c-1.455,0-2.895,0.493-4.053,1.388c-1.192,0.924-2.014,2.188-2.375,3.657c-0.422,1.718-0.15,3.499,0.766,5.013  c0.917,1.515,2.367,2.58,4.086,3.002l15.241,3.748L47.12,71.604z"></path></svg>