<?xml version="1.0" encoding="utf-8"?>
<!-- Svg Vector Icons : http://www.onlinewebfonts.com/icon -->
<!DOCTYPE svg PUBLIC "-//W3C//DTD SVG 1.1//EN" "http://www.w3.org/Graphics/SVG/1.1/DTD/svg11.dtd">
<svg version="1.1" xmlns="http://www.w3.org/2000/svg" xmlns:xlink="http://www.w3.org/1999/xlink" x="0px" y="0px" viewBox="0 0 1000 1000" enable-background="new 0 0 1000 1000" xml:space="preserve">
<metadata> Svg Vector Icons : http://www.onlinewebfonts.com/icon </metadata>
<g><path d="M114,861.5c-99.9-35.1-186.8-274.2,34.5-381.7l42.1-2.2C277,86.9,682.9,137.1,722.3,429.1l107.4,3.8c213.2,91.8,176,384.4,4.8,429.2c-240.2,0-480.5,0-720.7,0V861.5z M652.2,215.9c0,0,127.4,42.6,128.5,156.5c95-5.9,107.9-13.5,164.1,40c89.1-42.1,35.6-193.3-64.8-161.4c4.9-70.7-129.6-195.4-227.8-34.5V215.9z M375.2,756.3c-18.9,11.3-41.5,16.7-68.6,16.7c-35.6,0-64.2-11.3-85.8-34.6c-21.6-22.7-32.4-52.4-32.4-89.1c0-40.5,11.9-72.9,35.1-97.7c23.2-24.8,55.1-37.3,93.9-37.3c22.7,0,42.1,3.8,58.3,11.9v43.2c-17.3-12.9-36.7-19.4-58.3-19.4c-24.8,0-45.3,8.6-61,25.9c-15.7,17.3-23.7,40.5-23.7,69.1c0,28.6,7.5,50.7,22.1,67c15.1,16.2,34.6,24.3,59.9,24.3c21.1,0,41.6-7,60.4-21.1v39.9V756.3z M444.3,646.7c0-41,11.3-72.9,34-96.6c22.7-23.8,53.5-35.1,92.9-35.1c37.2,0,65.8,11.3,86.9,34c21.1,22.7,31.9,54,31.9,93.9c0,38.9-11.4,70.7-34,94.5c-22.7,23.8-52.4,36.2-90.2,36.2c-36.7,0-66.4-11.4-88.5-34.6c-22.1-23.2-32.9-54-32.9-91.8V646.7z M489.1,645.1c0,28.6,7,50.7,21.6,67c14.6,16.2,33.5,24.8,57.8,24.8c24.8,0,44.3-8.1,57.2-23.8c12.9-16.2,19.4-38.9,19.4-69.1c0-30.2-6.5-52.9-19.4-69.1c-13-16.2-32.4-24.3-57.2-24.3c-24.3,0-43.7,8.6-58.3,25.4c-14,16.7-21.6,39.9-21.6,69.1H489.1z M836.8,767.1h-87.4v-15.7l41.5-41.6c11.4-11.3,19.5-20.5,23.2-27.5c3.8-6.5,5.9-13.5,5.9-21.1c0-8.1-2.2-14.6-7-18.9c-4.3-4.3-11.3-6.5-20-6.5c-13,0-24.9,5.4-36.7,16.2v-18.3c11.3-8.6,24.3-13,39.4-13c13,0,23.2,3.2,30.8,10.3c7.5,7,11.3,16.2,11.3,28.1c0,9.2-2.2,17.8-7,26.5c-4.9,8.6-14,19.4-27.5,32.9l-32.9,31.9v0.5h65.8v16.2H836.8z"/></g>
</svg>