<svg height='300px' width='300px'  fill="#000000" xmlns="http://www.w3.org/2000/svg" xmlns:xlink="http://www.w3.org/1999/xlink" version="1.1" x="0px" y="0px" viewBox="0 0 100 100" enable-background="new 0 0 100 100" xml:space="preserve"><path d="M50.9,77.5c0,2.9,0.5,5.7,1.3,8.3h-6.4l-3.4-15.4c6.8-9.5-0.5-9.9-1.8-9.9c0,0,0,0,0,0c0,0,0,0,0,0c-1.3,0-8.6,0.5-1.8,9.9  l-3.4,15.4h-34v-11c0-2.3,1-4.5,2.8-6c10-8.2,20.7-13.6,22.9-14.7c0.2-0.1,0.4-0.4,0.4-0.6V37.8c-2-1.3-3.2-3.5-3.2-6V15.7  c0-8,6.5-14.5,14.5-14.5h1.7h1.7c8,0,14.5,6.5,14.5,14.5v16.1c0,2.5-1.3,4.7-3.2,6v15.5c0,0.3,0.2,0.5,0.4,0.6  c0.9,0.4,3.2,1.6,6.2,3.3C54.6,62.2,50.9,69.4,50.9,77.5z M84.4,82.8L84.4,82.8C84.4,82.8,84.4,82.7,84.4,82.8l-4.6-5.5  c-0.2-0.2-0.3-0.5-0.3-0.8l-0.7-10.1l0,0c-0.1-0.9-0.9-1.7-1.8-1.7c-0.9,0-1.7,0.7-1.8,1.6l0,0l0,0c0,0,0,0.1,0,0.1l-0.7,11.1  c0,0.1,0,0.1,0,0.2l0,0l0,0c0,0,0,0,0,0c0,0,0,0,0,0.1c0,0.7,0.2,1.3,0.8,1.9c0.1,0.1,0.2,0.2,0.3,0.3l6.2,5.2l0,0  c0.7,0.6,1.8,0.6,2.5-0.1C84.9,84.6,85,83.5,84.4,82.8L84.4,82.8z M98.5,77.5c0,11.7-9.6,21.3-21.3,21.3s-21.3-9.6-21.3-21.3  c0-11.7,9.6-21.3,21.3-21.3S98.5,65.7,98.5,77.5z M93,77.5c0-8.7-7.1-15.8-15.8-15.8s-15.8,7.1-15.8,15.8c0,8.7,7.1,15.8,15.8,15.8  S93,86.2,93,77.5z"></path></svg>